<svg version="1" xmlns="http://www.w3.org/2000/svg" width="282.667" height="282.667" viewBox="0 0 212.000000 212.000000"><path d="M22.1 21.7c-1.9 1-4.4 3.1-5.5 4.6-2.1 2.8-2.1 3.9-2.2 54.3 0 28.3 0 51.4.1 51.4s1.6-.5 3.4-1.1l3.1-1.1V74h13.5v27.4c0 15.1.3 27.7.6 28.1.4.3 1.9.7 3.4.8l2.8.2v-50c0-44.8-.2-50.4-1.7-53.2-3.3-6.4-11.2-8.9-17.5-5.6zm10.5 7.4c1.6 1.8 1.8 3.9 1.9 19.9l.1 17.8-4.1.4c-2.2.1-5.2.2-6.7 0l-2.8-.3V49.1c0-16.5.1-17.9 2-19.9 2.6-2.8 7.1-2.8 9.6-.1zM49.7 20.7c-.2.5-.4 26.7-.4 58.3 0 54.6.1 57.6 1.9 60.2 1 1.5 2.5 4.2 3.3 6 1.3 2.9 1.4-3.4 1.5-55.3 0-57.5 0-58.6 2-60.7 2.8-2.9 7.3-2.9 9.7.1 1.7 2.2 1.8 5.4 1.8 50.5 0 26.5.1 48.2.2 48.2s1.7-.7 3.5-1.6l3.3-1.5-.1-45.7c0-25.1-.4-47.3-.8-49.3-1.3-7.3-10-11.8-16.5-8.6-2.6 1.3-3.1 1.3-3.1.1 0-1.5-5.5-2.1-6.3-.7zM98.2 70.2c0 27.7.2 51.5.4 53 .5 2.6.5 2.6 3.5 1l2.9-1.7V76.9c0-44.4 0-45.6 2-47.7 2.7-2.9 7.1-2.8 9.8.1 2.2 2.3 2.2 2.5 2.2 47.4v45.1l2.3.6c1.2.3 2.7.6 3.3.6.7 0 1.1-13.9 1.1-46.2V30.7l2.3-1.9c3-2.4 6.5-2.3 9 .4 2 2.1 2 3.2 2 64.1v61.9l3.5-3.5 3.5-3.5V89.3c-.1-65.8.2-63.6-7.1-67.5-4.4-2.3-8.5-2.3-13.2.2-3.7 2-3.7 2-6.9 0-4-2.4-8.5-2.6-11.6-.4-2 1.4-2.2 1.4-2.2 0 0-1.1-1-1.6-3.3-1.6h-3.4l-.1 50.2zM160.3 21.9c-7.2 4.5-6.8 1-6.9 65.3l-.1 57.8h3.4c1.9 0 3.3-.5 3.3-1.3.1-.6.1-16.6.1-35.5V74h13.4v42.9c0 23.6.1 42.9.2 42.8 0-.1 1.6-2.5 3.5-5.2l3.3-5-.1-59.5c-.1-53.6-.3-59.8-1.8-62.7-3.3-6.6-12.3-9.2-18.3-5.4zm11.3 7.2c1.6 1.8 1.8 3.9 1.9 20l.1 17.9h-13.5V49.1c0-16.4.2-18 2-20 2.5-2.7 7-2.7 9.5 0zM84.4 71.7l.1 50.8 3.3.3 3.2.3V21H84.3l.1 50.7zM187.5 83l-.1 62h7.2c7.6 0 8.4-.5 7.6-4.7-.4-1.9-1.1-2.3-4.3-2.3H194V21h-6.5v62z"/><path d="M109.3 125.1c-2.3.4-5.4 1.4-6.9 2.2-2.2 1.1-3.2 1.2-6.3.1-7.8-2.8-19.7-1-24.9 3.9-3.3 3.1-5.9 8.4-6.7 14-.6 4.1-1 4.7-3.1 4.7-1.4 0-2.5.6-2.5 1.5-.1.8-.2 2-.3 2.7-.1.7 1 1.5 2.4 1.8l2.5.6v12.9c0 12.5-.1 13-2.2 14-2.5 1-3.3 5.5-1 5.6 2.9.1 22.2-.2 22.4-.4.1-.1.4-1.5.7-3 .4-2.6.3-2.7-3.4-2.7-2.7 0-4.2-.5-4.8-1.7-1-2.1-.9-24 .2-25 .9-1 13.8-.5 14.8.5.5.5.7 6.5.6 13.3-.3 11.8-.4 12.5-2.5 13.4-1.5.6-2.3 1.8-2.3 3.5v2.5l11.9-.3c10.2-.3 12-.6 12.3-2 .8-3-.3-4.2-3.7-4.2-1.9 0-3.7-.6-4.1-1.2-.8-1.3-1.4-23.4-.7-25.4.4-1.2 15.9-1.1 17.1 0 .4.4.7 6.2.7 12.8 0 11.1-.2 12.1-2.2 13.8-1.2.9-2.5 2.9-2.9 4.4-.6 2.5-.5 2.7 2.2 2.2 1.6-.2 6.4-.5 10.7-.5l7.7-.1v-3c0-1.9-.5-3-1.2-2.9-4.1.5-4.1.5-3.5-15.4.3-8.3.8-16.3 1.1-17.6.5-2.2.4-2.3-4.2-1.6-2.6.4-9.3.9-14.9 1.1l-10.3.3v-5.2c0-6.2 2.8-11.6 6.2-11.9 5.3-.4 8.4.2 11 2.2 1.5 1.1 3 2 3.3 2 .8 0 3.5-6.5 3.5-8.5 0-2.9-9.1-4.8-16.7-3.4zm-18.8 10.1c2.3 1 2.6 1.6 2.1 4.2-.4 1.7-.9 4.7-1.2 6.7l-.6 3.6-7.9.2-7.9.2v-4.6c0-4.8 2-9.9 4.2-10.8 2.4-1 8.7-.7 11.3.5zM16.1 135.1C5.6 140.4.5 149.7.7 163.1c.2 12 4.3 19.7 12.8 24.2 5.6 3 18.1 3 24.5.1 9.6-4.5 15.1-13.2 15.8-25.4.6-10-1.5-17.4-6.3-22.3-4.9-5-9.6-6.9-18.2-7.3-6.3-.3-7.9.1-13.2 2.7zm18.8 9.1c3.7 3.8 5.5 10.4 5.4 19.8-.1 12.4-4.6 18.5-13.5 18.2-7.2-.2-11.7-7-12.5-19-.8-12.3 2.4-20.3 9-22 4.7-1.2 8.4-.3 11.6 3zM150.5 149.6c-4.6 2.5-8.6 6.5-10.3 10.4-1.9 4.3-2.4 13.2-1 17.4 3.9 11.6 16.6 16 26.9 9.1 3-1.9 3.9-3.2 3.7-4.8-.2-1.6-.9-2.1-2.3-1.9-8.8 1.3-10.4 1.3-12.4.2-3.1-1.6-5.1-6.9-5.1-13 0-5.3 2.2-11 4.3-11 .6 0 2.1-.3 3.3-.6 2.8-.7 5.4 2 5.4 5.7 0 2.5.4 2.9 2.8 2.9 2.8 0 2.9-.2 3.9-6.8.6-3.7.7-7.1.2-7.6-.4-.5-4.3-1.1-8.6-1.3-5.9-.3-8.5.1-10.8 1.3zM187.9 149.3c-4 1.9-7.3 4.9-9.9 9.1-3.2 5.2-3.4 16.1-.6 21.9 2.7 5.5 8.4 9 15.4 9.4 4.8.3 6.6-.1 11.2-2.5 4.6-2.5 5.4-3.3 5.2-5.3-.2-1.3-.5-2.5-.6-2.7-.2-.1-2.7.4-5.7 1.1-8.7 2.3-14.2-.4-15.9-7.6-.9-4.2-2.2-3.8 13-4.1l9.4-.1.6-3c1.5-7-1.4-13.9-6.5-16.1-4.1-1.7-12-1.7-15.6-.1zm9.8 6.5c1.5 1 2.7 5.8 1.6 6.5-.5.3-3.5.8-6.6 1.1-4.7.5-5.7.3-5.7-1 0-1.9 1.9-5.6 3.4-6.6 1.4-1 5.8-1 7.3 0z"/></svg>